<?xml version="1.0" encoding="utf-8"?>
<!-- Generator: Adobe Illustrator 21.1.0, SVG Export Plug-In . SVG Version: 6.00 Build 0)  -->
<svg version="1.1" id="圖層_1" xmlns="http://www.w3.org/2000/svg" xmlns:xlink="http://www.w3.org/1999/xlink" x="0px" y="0px"
	 viewBox="0 0 463.3 101.3" style="enable-background:new 0 0 463.3 101.3;" xml:space="preserve">
<style type="text/css">
	.st0{fill:#CED73F;}
</style>
<g>
	<path d="M37.6,49.1c-3.7,2-8.4,3-13.9,3c-7.2,0-12.9-2.3-17.2-6.9C2.2,40.6,0,34.5,0,27c0-8.1,2.4-14.6,7.3-19.5
		c4.9-5,11-7.5,18.5-7.5c4.8,0,8.7,0.7,11.9,2.1v6.3c-3.6-2-7.6-3-12-3c-5.8,0-10.5,1.9-14.1,5.8C8,15,6.2,20.2,6.2,26.6
		c0,6.1,1.7,11,5,14.7c3.4,3.6,7.8,5.5,13.2,5.5c5.1,0,9.4-1.1,13.1-3.4V49.1z"/>
	<path d="M86.9,51.3h-6.5L75,37.1H53.6l-5,14.1H42L61.4,0.8h6.1L86.9,51.3z M73.1,31.8l-7.9-21.5c-0.3-0.7-0.5-1.8-0.8-3.4h-0.1
		c-0.2,1.4-0.5,2.6-0.8,3.4l-7.8,21.5H73.1z"/>
	<path d="M145.7,51.3h-5.9V17.4c0-2.7,0.2-5.9,0.5-9.8h-0.1c-0.6,2.3-1.1,3.9-1.5,4.9l-17.2,38.7h-2.9l-17.2-38.5
		c-0.5-1.1-1-2.8-1.5-5.2h-0.1c0.2,2,0.3,5.3,0.3,9.9v33.8h-5.7V0.8h7.8L117.6,36c1.2,2.7,2,4.7,2.3,6h0.2c1-2.8,1.8-4.8,2.4-6.2
		l15.8-35h7.4V51.3z"/>
	<path d="M185.7,51.3H159V0.8h25.6v5.3h-19.7V23h18.2v5.3h-18.2v17.6h20.8V51.3z"/>
	<path d="M231.5,51.3h-7l-8.4-14.1c-0.8-1.3-1.5-2.4-2.3-3.4c-0.7-0.9-1.5-1.7-2.2-2.3c-0.8-0.6-1.6-1-2.5-1.3
		c-0.9-0.3-1.9-0.4-3-0.4h-4.9v21.4h-5.9V0.8h15c2.2,0,4.2,0.3,6.1,0.8c1.9,0.6,3.5,1.4,4.9,2.5s2.4,2.5,3.2,4.2
		c0.8,1.7,1.2,3.6,1.2,5.9c0,1.8-0.3,3.4-0.8,4.8c-0.5,1.5-1.3,2.8-2.3,3.9c-1,1.1-2.1,2.1-3.5,2.9s-2.9,1.4-4.6,1.9V28
		c0.8,0.4,1.6,0.8,2.2,1.3c0.6,0.5,1.2,1,1.8,1.7c0.6,0.7,1.1,1.4,1.7,2.2c0.6,0.8,1.2,1.8,1.8,2.9L231.5,51.3z M201.3,6.2v18.3h8
		c1.5,0,2.8-0.2,4.1-0.7c1.3-0.4,2.3-1.1,3.3-1.9c0.9-0.8,1.6-1.9,2.1-3.1c0.5-1.2,0.8-2.6,0.8-4.1c0-2.7-0.9-4.8-2.6-6.3
		s-4.3-2.3-7.6-2.3H201.3z"/>
	<path d="M277.5,51.3h-6.5l-5.3-14.1h-21.4l-5,14.1h-6.6L252,0.8h6.1L277.5,51.3z M263.7,31.8l-7.9-21.5c-0.3-0.7-0.5-1.8-0.8-3.4
		h-0.1c-0.2,1.4-0.5,2.6-0.8,3.4l-7.8,21.5H263.7z"/>
</g>
<polygon class="st0" points="322.3,101.3 0.2,101.3 0.2,63.8 463.3,63.8 "/>
<g>
	<path d="M12.2,78.2h3.3v-3.8h0.8v3.8H19V79h-2.7v2.5l0.5-0.4c1,1.1,1.9,2.3,2.5,3.6l-0.7,0.5c-0.6-1.2-1.4-2.4-2.4-3.6v9.2h-0.8V81
		c-0.3,1.1-0.7,2.2-1.1,3.1c-0.5,1.1-1.1,2.2-1.9,3.3l-0.7-0.7c0.8-1,1.5-2.3,2.2-3.8c0.6-1.3,1-2.6,1.2-3.9h-3V78.2z M27.3,75.3
		v15.5h-0.8v-1.7h-6v1.7h-0.8V75.3H27.3z M20.5,79.4h6V76h-6V79.4z M20.5,83.8h6v-3.6h-6V83.8z M20.5,88.3h6v-3.7h-6V88.3z"/>
	<path d="M30.2,77.8h2.3v-3.6h0.8v3.6H35v0.7h-1.7v12.3h-0.8v-9.5c-0.2,0.7-0.4,1.4-0.6,2c-0.3,1.1-0.8,2.1-1.4,3.1l-0.7-0.6
		c0.6-1,1.1-2.2,1.6-3.7c0.4-1.2,0.7-2.5,0.9-3.8h-2.2V77.8z M34,80.1c0.5,0.8,0.9,1.7,1.3,2.7l-0.7,0.5c-0.3-1-0.7-1.9-1.2-2.8
		L34,80.1z M34.5,83.9H37c0.1-0.4,0.1-0.8,0.1-1.2h0.8c0,0.4-0.1,0.8-0.1,1.2h3c0-0.1,0-0.1-0.1-0.2c-0.6-2.2-0.9-5.4-0.9-9.5h0.8
		c0,4.1,0.3,7.1,0.8,9.1c0,0.2,0.1,0.4,0.1,0.6H44c-0.3-0.4-0.7-0.8-1.1-1.2l0.6-0.4c0.5,0.5,1,1,1.5,1.6h1.5v0.6h-4.6
		c0.3,0.8,0.6,1.6,0.9,2.3c0.6-0.6,1.1-1.2,1.5-1.8l0.7,0.4c-0.6,0.8-1.2,1.6-1.8,2.2c0.1,0.2,0.2,0.4,0.4,0.6
		c0.8,1.1,1.3,1.6,1.8,1.6c0.1,0,0.2-0.1,0.3-0.2c0.1-0.3,0.2-1,0.3-1.9l0.8,0.3c-0.1,1.1-0.3,1.8-0.6,2.2c-0.2,0.3-0.5,0.4-0.8,0.4
		c-0.6,0-1.3-0.6-2.3-1.9c-0.2-0.2-0.3-0.5-0.4-0.7c-0.2,0.2-0.4,0.4-0.7,0.5c-1.1,0.7-2.5,1.4-4.2,2l-0.4-0.7c1.7-0.6,3-1.2,4-1.8
		c0.3-0.2,0.6-0.4,0.8-0.7c-0.4-0.8-0.8-1.8-1.1-2.8h-3.3c-0.1,0.4-0.1,0.7-0.2,1.1c1,0.6,1.9,1.3,2.6,1.9l-0.5,0.6
		c-0.8-0.7-1.6-1.3-2.4-1.8c-0.3,1-0.7,1.8-1.1,2.5c-0.5,0.8-1,1.3-1.7,1.8L34.1,90c0.6-0.4,1.1-0.9,1.5-1.6
		c0.4-0.7,0.8-1.6,1.1-2.5c0.1-0.4,0.2-0.8,0.3-1.3h-2.4V83.9z M37.6,74.6l0.7,0.3c-0.2,0.6-0.5,1.3-0.9,2c-0.3,0.5-0.6,1-0.8,1.4
		c0.6,0,1.2-0.1,1.7-0.2c0.3-0.5,0.5-1,0.7-1.5l0.7,0.3c-0.4,0.9-0.8,1.8-1.5,2.7c-0.5,0.8-1,1.4-1.5,2c0.7,0,1.4-0.2,2-0.3
		c-0.2-0.4-0.4-0.7-0.6-1l0.6-0.3c0.6,0.8,1,1.7,1.3,2.6l-0.7,0.2c-0.1-0.3-0.2-0.7-0.3-1c-1,0.3-2.2,0.5-3.6,0.5l-0.1-0.7
		c0.2,0,0.3,0,0.5,0c0.6-0.8,1.2-1.5,1.7-2.3c0.1-0.2,0.2-0.4,0.3-0.5c-0.8,0.1-1.7,0.2-2.5,0.3l-0.2-0.7c0.2,0,0.4,0,0.6-0.1
		c0.4-0.5,0.7-1.1,1-1.7C37,76,37.3,75.3,37.6,74.6z M43.5,74.5l0.7,0.3c-0.2,0.6-0.5,1.3-0.9,2c-0.3,0.6-0.6,1-0.9,1.5
		c0.6,0,1.2-0.1,1.8-0.2c0.3-0.6,0.6-1.1,0.8-1.7l0.7,0.3c-0.3,0.9-0.8,1.8-1.4,2.7c-0.5,0.8-0.9,1.4-1.5,2c0.8-0.1,1.6-0.2,2.2-0.3
		c-0.2-0.3-0.4-0.6-0.6-0.9l0.5-0.4c0.6,0.8,1.1,1.8,1.5,2.8L45.9,83c-0.2-0.4-0.4-0.9-0.6-1.3c-1,0.3-2.3,0.5-3.8,0.5l-0.1-0.7h0.6
		c0.6-0.8,1.1-1.5,1.6-2.3c0.1-0.2,0.2-0.3,0.2-0.4c-0.9,0.1-1.7,0.2-2.6,0.3l-0.2-0.7c0.2,0,0.4,0,0.5,0c0.4-0.6,0.8-1.1,1.1-1.7
		C42.9,75.9,43.2,75.2,43.5,74.5z"/>
</g>
</svg>
