<?xml version="1.0" encoding="utf-8"?>
<!-- Generator: Adobe Illustrator 21.1.0, SVG Export Plug-In . SVG Version: 6.00 Build 0)  -->
<svg version="1.1" id="圖層_1" xmlns="http://www.w3.org/2000/svg" xmlns:xlink="http://www.w3.org/1999/xlink" x="0px" y="0px"
	 viewBox="0 0 664.6 74.8" style="enable-background:new 0 0 664.6 74.8;" xml:space="preserve">
<style type="text/css">
	.st0{fill:#7BBDDD;}
	.st1{fill:#FFFFFF;}
</style>
<polygon class="st0" points="520.9,74.8 0,74.8 0,33.6 611.2,33.6 "/>
<polygon class="st0" points="574.2,50.3 573.7,47.4 664.1,6.1 664.6,9 "/>
<g>
	<path class="st1" d="M45.5,49.9c-4.1,1.7-8.3,2.5-12.8,2.5c-6.9,0-12.5-2.3-16.9-6.9c-4.3-4.6-6.5-10.7-6.5-18.1
		c0-8.2,2.4-14.7,7.1-19.7c4.7-4.9,10.7-7.4,18-7.4c3.9,0,7.6,0.6,11.1,1.9v3.7c-3.5-1.6-7.3-2.4-11.2-2.4c-6.3,0-11.5,2.1-15.4,6.4
		c-4,4.3-5.9,10-5.9,17.1c0,6.9,1.9,12.3,5.7,16.3c3.8,4,8.6,6,14.4,6c4.6,0,8.8-0.9,12.5-2.7V49.9z"/>
	<path class="st1" d="M89.5,51.5l-5.8-15.7H61.9l-5.8,15.7h-3.8l19-50.4h3.3l18.8,50.4H89.5z M74.1,9.4c-0.3-0.7-0.5-1.4-0.6-2.1
		c-0.2-0.6-0.3-1.2-0.5-1.8h-0.1c-0.4,1.5-0.8,2.8-1.2,3.8l-8.5,23.4h19.4L74.1,9.4z"/>
	<path class="st1" d="M137.6,51.5l-30-40.7c-0.6-0.8-1.1-1.6-1.6-2.5l-0.5-0.7h-0.1c0,0.6,0.1,1.3,0.1,2.2v41.7H102V1.1h2.7
		l29.8,40.4c0.7,0.9,1.4,2,2.1,3.2h0.2c-0.1-1.6-0.2-3-0.2-4.2V1.1h3.5v50.4H137.6z"/>
	<path class="st1" d="M173.8,52.4c-7.1,0-12.8-2.4-17-7.1c-4.2-4.7-6.3-10.9-6.3-18.5c0-8,2.2-14.5,6.5-19.3
		c4.3-4.8,10.3-7.3,17.8-7.3c6.8,0,12.3,2.3,16.5,7c4.2,4.7,6.3,10.8,6.3,18.3c0,8.3-2.2,14.9-6.5,19.7
		C186.7,50,181,52.4,173.8,52.4z M174.1,3.4c-5.9,0-10.7,2.1-14.5,6.4c-3.8,4.2-5.7,9.8-5.7,16.7c0,6.9,1.8,12.5,5.4,16.6
		s8.4,6.2,14.3,6.2c6.2,0,11.2-2,14.8-6.1c3.6-4.1,5.4-9.7,5.4-17c0-7.1-1.8-12.7-5.3-16.7C185.1,5.4,180.2,3.4,174.1,3.4z"/>
	<path class="st1" d="M243.5,51.5l-30-40.7c-0.6-0.8-1.1-1.6-1.6-2.5l-0.5-0.7h-0.1c0,0.6,0.1,1.3,0.1,2.2v41.7h-3.5V1.1h2.7
		l29.8,40.4c0.7,0.9,1.4,2,2.1,3.2h0.2c-0.1-1.6-0.2-3-0.2-4.2V1.1h3.5v50.4H243.5z"/>
	<path class="st1" d="M278.6,51.5V1.1h23.6v3.2h-20.1v20.2h18.6v3.2h-18.6v20.7h21.2v3.2H278.6z"/>
	<path class="st1" d="M335.3,52.4c-7.1,0-12.8-2.4-17-7.1c-4.2-4.7-6.3-10.9-6.3-18.5c0-8,2.2-14.5,6.5-19.3
		c4.3-4.8,10.3-7.3,17.8-7.3c6.8,0,12.3,2.3,16.5,7c4.2,4.7,6.3,10.8,6.3,18.3c0,8.3-2.2,14.9-6.5,19.7S342.6,52.4,335.3,52.4z
		 M335.7,3.4c-5.9,0-10.7,2.1-14.5,6.4c-3.8,4.2-5.7,9.8-5.7,16.7c0,6.9,1.8,12.5,5.4,16.6s8.4,6.2,14.3,6.2c6.2,0,11.2-2,14.8-6.1
		c3.6-4.1,5.4-9.7,5.4-17c0-7.1-1.8-12.7-5.3-16.7C346.6,5.4,341.8,3.4,335.7,3.4z"/>
	<path class="st1" d="M367.8,49.7v-4c3.6,2.3,7.3,3.4,11,3.4c3.9,0,6.9-0.8,9-2.4c2-1.6,3.1-3.9,3.1-6.8c0-2.6-0.7-4.6-2.1-6.2
		c-1.4-1.5-4.3-3.6-8.9-6.3c-5.1-3-8.3-5.5-9.7-7.5s-2-4.3-2-6.9c0-3.6,1.4-6.6,4.1-9.1c2.8-2.5,6.5-3.7,11.1-3.7c3,0,6,0.5,9,1.5
		v3.7c-3-1.3-6.1-2-9.5-2c-3.4,0-6.1,0.9-8.1,2.6c-2,1.7-3,3.9-3,6.6c0,2.6,0.7,4.6,2.1,6.2c1.4,1.5,4.3,3.6,8.9,6.2
		c4.7,2.7,7.8,5,9.4,7.1s2.3,4.5,2.3,7.2c0,3.9-1.3,7-4,9.5c-2.7,2.4-6.5,3.7-11.4,3.7c-1.7,0-3.7-0.3-6-0.8S369,50.4,367.8,49.7z"
		/>
	<path class="st1" d="M468.6,51.5V15.8c0-0.9,0.1-3.3,0.4-7.4h-0.1c-0.7,1.9-1.3,3.4-1.8,4.4l-17.9,38.8H448l-18-38.6
		c-0.6-1.2-1.1-2.8-1.7-4.7h-0.2c0.2,2.3,0.2,4.5,0.2,6.7v36.6h-3.5V1.1h3.2L447,41.7c0.1,0.2,0.2,0.6,0.4,0.9
		c0.1,0.4,0.3,0.8,0.5,1.2c0.2,0.6,0.5,1.3,0.7,2h0.2l0.4-1.1c0-0.1,0.4-1.2,1.2-3.3l18.5-40.3h3.1v50.4H468.6z"/>
	<path class="st1" d="M496.9,0v51.5h-3.2V5.1c-1.6,1.5-3.5,2.9-5.5,4s-4.3,2.1-6.8,3v-3c1.5-0.5,2.8-1,4.1-1.7
		c1.3-0.6,2.5-1.3,3.6-2.1c1.2-0.8,2.3-1.6,3.4-2.5c1.1-0.9,2.2-1.9,3.3-2.9H496.9z"/>
	<path class="st1" d="M522.2,52.4c-4.6,0-8.3-2.1-10.9-6.4c-2.6-4.3-3.9-10.5-3.9-18.6c0-9,1.4-15.7,4.1-20.3
		c2.8-4.6,6.7-6.8,11.8-6.8c9.7,0,14.6,8.6,14.6,25.8c0,8.6-1.4,15.1-4.1,19.6C531,50.2,527.2,52.4,522.2,52.4z M523,3.2
		c-3.9,0-6.9,2-9,5.9c-2.2,4-3.2,9.9-3.2,17.8c0,7.2,1,12.8,3.1,16.6c2.1,3.9,5,5.8,8.8,5.8c3.7,0,6.6-2,8.7-5.9
		c2.1-3.9,3.1-9.6,3.1-16.9C534.5,11,530.7,3.2,523,3.2z"/>
	<path class="st1" d="M559.3,52.4c-4.6,0-8.3-2.1-10.9-6.4c-2.6-4.3-3.9-10.5-3.9-18.6c0-9,1.4-15.7,4.1-20.3
		c2.8-4.6,6.7-6.8,11.8-6.8c9.7,0,14.6,8.6,14.6,25.8c0,8.6-1.4,15.1-4.1,19.6C568.1,50.2,564.3,52.4,559.3,52.4z M560.1,3.2
		c-3.9,0-6.9,2-9,5.9c-2.2,4-3.2,9.9-3.2,17.8c0,7.2,1,12.8,3.1,16.6c2.1,3.9,5,5.8,8.8,5.8c3.7,0,6.6-2,8.7-5.9
		c2.1-3.9,3.1-9.6,3.1-16.9C571.6,11,567.7,3.2,560.1,3.2z"/>
</g>
</svg>
