<?xml version="1.0" encoding="utf-8"?>
<!-- Generator: Adobe Illustrator 21.1.0, SVG Export Plug-In . SVG Version: 6.00 Build 0)  -->
<svg version="1.1" id="圖層_1" xmlns="http://www.w3.org/2000/svg" xmlns:xlink="http://www.w3.org/1999/xlink" x="0px" y="0px"
	 viewBox="0 0 664.6 74.6" style="enable-background:new 0 0 664.6 74.6;" xml:space="preserve">
<style type="text/css">
	.st0{fill:#EBA4A7;}
	.st1{fill:#FFFFFF;}
</style>
<polygon class="st0" points="520.9,74.6 0,74.6 0,33.3 611.2,33.3 "/>
<polygon class="st0" points="574.2,50 573.7,47.1 664.1,5.8 664.6,8.7 "/>
<g>
	<path class="st1" d="M45.5,49.6c-4.1,1.7-8.3,2.5-12.8,2.5c-6.9,0-12.5-2.3-16.9-6.9c-4.3-4.6-6.5-10.7-6.5-18.1
		c0-8.2,2.4-14.7,7.1-19.7C21.1,2.5,27.1,0,34.4,0c3.9,0,7.6,0.6,11.1,1.9v3.7C41.9,4,38.2,3.2,34.3,3.2c-6.3,0-11.5,2.1-15.4,6.4
		c-4,4.3-5.9,10-5.9,17.1c0,6.9,1.9,12.3,5.7,16.3c3.8,4,8.6,6,14.4,6c4.6,0,8.8-0.9,12.5-2.7V49.6z"/>
	<path class="st1" d="M89.5,51.3l-5.8-15.7H61.9l-5.8,15.7h-3.8l19-50.4h3.3l18.8,50.4H89.5z M74.1,9.1c-0.3-0.7-0.5-1.4-0.6-2.1
		c-0.2-0.6-0.3-1.2-0.5-1.8h-0.1C72.4,6.8,72,8,71.6,9l-8.5,23.4h19.4L74.1,9.1z"/>
	<path class="st1" d="M137.6,51.3l-30-40.7c-0.6-0.8-1.1-1.6-1.6-2.5l-0.5-0.7h-0.1c0,0.6,0.1,1.3,0.1,2.2v41.7H102V0.8h2.7
		l29.8,40.4c0.7,0.9,1.4,2,2.1,3.2h0.2c-0.1-1.6-0.2-3-0.2-4.2V0.8h3.5v50.4H137.6z"/>
	<path class="st1" d="M173.8,52.1c-7.1,0-12.8-2.4-17-7.1c-4.2-4.7-6.3-10.9-6.3-18.5c0-8,2.2-14.5,6.5-19.3
		c4.3-4.8,10.3-7.3,17.8-7.3c6.8,0,12.3,2.3,16.5,7c4.2,4.7,6.3,10.8,6.3,18.3c0,8.3-2.2,14.9-6.5,19.7
		C186.7,49.7,181,52.1,173.8,52.1z M174.1,3.2c-5.9,0-10.7,2.1-14.5,6.4c-3.8,4.2-5.7,9.8-5.7,16.7c0,6.9,1.8,12.5,5.4,16.6
		s8.4,6.2,14.3,6.2c6.2,0,11.2-2,14.8-6.1c3.6-4.1,5.4-9.7,5.4-17c0-7.1-1.8-12.7-5.3-16.7C185.1,5.2,180.2,3.2,174.1,3.2z"/>
	<path class="st1" d="M243.5,51.3l-30-40.7c-0.6-0.8-1.1-1.6-1.6-2.5l-0.5-0.7h-0.1c0,0.6,0.1,1.3,0.1,2.2v41.7h-3.5V0.8h2.7
		l29.8,40.4c0.7,0.9,1.4,2,2.1,3.2h0.2c-0.1-1.6-0.2-3-0.2-4.2V0.8h3.5v50.4H243.5z"/>
	<path class="st1" d="M278.6,51.3V0.8h23.6V4h-20.1v20.2h18.6v3.2h-18.6v20.7h21.2v3.2H278.6z"/>
	<path class="st1" d="M335.3,52.1c-7.1,0-12.8-2.4-17-7.1c-4.2-4.7-6.3-10.9-6.3-18.5c0-8,2.2-14.5,6.5-19.3
		c4.3-4.8,10.3-7.3,17.8-7.3c6.8,0,12.3,2.3,16.5,7c4.2,4.7,6.3,10.8,6.3,18.3c0,8.3-2.2,14.9-6.5,19.7S342.6,52.1,335.3,52.1z
		 M335.7,3.2c-5.9,0-10.7,2.1-14.5,6.4c-3.8,4.2-5.7,9.8-5.7,16.7c0,6.9,1.8,12.5,5.4,16.6s8.4,6.2,14.3,6.2c6.2,0,11.2-2,14.8-6.1
		c3.6-4.1,5.4-9.7,5.4-17c0-7.1-1.8-12.7-5.3-16.7C346.6,5.2,341.8,3.2,335.7,3.2z"/>
	<path class="st1" d="M367.8,49.5v-4c3.6,2.3,7.3,3.4,11,3.4c3.9,0,6.9-0.8,9-2.4c2-1.6,3.1-3.9,3.1-6.8c0-2.6-0.7-4.6-2.1-6.2
		c-1.4-1.5-4.3-3.6-8.9-6.3c-5.1-3-8.3-5.5-9.7-7.5s-2-4.3-2-6.9c0-3.6,1.4-6.6,4.1-9.1C375,1.2,378.7,0,383.3,0c3,0,6,0.5,9,1.5
		v3.7c-3-1.3-6.1-2-9.5-2c-3.4,0-6.1,0.9-8.1,2.6c-2,1.7-3,3.9-3,6.6c0,2.6,0.7,4.6,2.1,6.2c1.4,1.5,4.3,3.6,8.9,6.2
		c4.7,2.7,7.8,5,9.4,7.1s2.3,4.5,2.3,7.2c0,3.9-1.3,7-4,9.5c-2.7,2.4-6.5,3.7-11.4,3.7c-1.7,0-3.7-0.3-6-0.8S369,50.2,367.8,49.5z"
		/>
	<path class="st1" d="M468.6,51.3V15.5c0-0.9,0.1-3.3,0.4-7.4h-0.1c-0.7,1.9-1.3,3.4-1.8,4.4l-17.9,38.8H448l-18-38.6
		c-0.6-1.2-1.1-2.8-1.7-4.7h-0.2c0.2,2.3,0.2,4.5,0.2,6.7v36.6h-3.5V0.8h3.2L447,41.4c0.1,0.2,0.2,0.6,0.4,0.9
		c0.1,0.4,0.3,0.8,0.5,1.2c0.2,0.6,0.5,1.3,0.7,2h0.2l0.4-1.1c0-0.1,0.4-1.2,1.2-3.3l18.5-40.3h3.1v50.4H468.6z"/>
	<path class="st1" d="M509.7,1.2v3.4c-2.4-1.1-4.9-1.7-7.4-1.7c-2.5,0-4.8,0.6-6.8,1.8s-3.7,3-5.1,5.2c-1.4,2.2-2.5,4.9-3.2,8
		c-0.8,3.1-1.1,6.5-1.1,10.2h0.1c2.5-5.6,6.7-8.4,12.6-8.4c2.1,0,3.9,0.4,5.6,1.2c1.7,0.8,3.1,1.9,4.3,3.3s2.1,3.1,2.8,4.9
		c0.7,1.9,1,3.9,1,6.1c0,2.4-0.4,4.7-1.1,6.8c-0.7,2.1-1.8,3.8-3.1,5.3c-1.3,1.5-2.9,2.7-4.8,3.5s-3.9,1.3-6.1,1.3
		c-2.3,0-4.4-0.5-6.2-1.5s-3.4-2.5-4.6-4.4s-2.2-4.3-2.9-7.2c-0.7-2.9-1-6.2-1-9.9c0-4.4,0.4-8.4,1.3-12s2.1-6.6,3.8-9.2
		c1.7-2.5,3.7-4.5,6.2-5.9c2.4-1.4,5.2-2.1,8.3-2.1C505.1,0,507.5,0.4,509.7,1.2z M498.1,22.7c-1.7,0-3.2,0.3-4.6,1
		c-1.4,0.7-2.6,1.6-3.7,2.7c-1,1.1-1.8,2.4-2.4,3.9c-0.6,1.5-0.9,2.9-0.9,4.4c0,1.9,0.3,3.8,0.8,5.5c0.5,1.7,1.3,3.3,2.3,4.6
		c1,1.3,2.2,2.4,3.6,3.1c1.4,0.8,2.9,1.2,4.7,1.2c1.6,0,3.1-0.3,4.5-1s2.6-1.6,3.6-2.8c1-1.2,1.8-2.6,2.4-4.2s0.9-3.4,0.9-5.3
		c0-2-0.3-3.8-0.8-5.4c-0.5-1.6-1.2-3-2.2-4.2s-2.1-2.1-3.5-2.7C501.3,23,499.8,22.7,498.1,22.7z"/>
</g>
</svg>
