<?xml version="1.0" encoding="utf-8"?>
<!-- Generator: Adobe Illustrator 21.1.0, SVG Export Plug-In . SVG Version: 6.00 Build 0)  -->
<svg version="1.1" id="圖層_1" xmlns="http://www.w3.org/2000/svg" xmlns:xlink="http://www.w3.org/1999/xlink" x="0px" y="0px"
	 viewBox="0 0 17 17" style="enable-background:new 0 0 17 17;" xml:space="preserve">
<style type="text/css">
	.st0{fill:#F5A916;}
</style>
<path class="st0" d="M8.5,0.2c4.6,0,8.3,3.7,8.3,8.3s-3.7,8.3-8.3,8.3s-8.3-3.7-8.3-8.3S3.9,0.2,8.5,0.2 M8.5,0C3.8,0,0,3.8,0,8.5
	S3.8,17,8.5,17S17,13.2,17,8.5S13.2,0,8.5,0L8.5,0z"/>
<path class="st0" d="M8.5,0C3.8,0,0,3.8,0,8.5c0,2,0.7,3.9,1.9,5.4c0.2-1.5,1.7-2.7,3.8-3.3c0.8,0.7,1.7,1.1,2.8,1.1s2-0.4,2.8-1.1
	c2.1,0.6,3.6,2,3.6,3.5c1.3-1.5,2.1-3.5,2.1-5.6C17,3.8,13.2,0,8.5,0L8.5,0z M8.5,10.7c-0.5,0-1.1-0.1-1.5-0.4
	C5.9,9.6,5.1,8.4,5.1,6.9c0-2.1,1.5-3.8,3.4-3.8s3.4,1.7,3.4,3.8c0,1.5-0.8,2.8-1.9,3.4C9.5,10.5,9,10.7,8.5,10.7L8.5,10.7z"/>
</svg>
