<?xml version="1.0" encoding="utf-8"?>
<!-- Generator: Adobe Illustrator 21.1.0, SVG Export Plug-In . SVG Version: 6.00 Build 0)  -->
<svg version="1.1" id="圖層_1" xmlns="http://www.w3.org/2000/svg" xmlns:xlink="http://www.w3.org/1999/xlink" x="0px" y="0px"
	 viewBox="0 0 432.6 100.4" style="enable-background:new 0 0 432.6 100.4;" xml:space="preserve">
<style type="text/css">
	.st0{fill:#6BBDCC;}
	.st1{fill:#040000;}
</style>
<g>
	<path d="M29.3,50.4H3.1V0H9v45.1h20.3V50.4z"/>
	<path d="M63.7,50.4H37V0h25.6v5.3H42.9v16.8h18.2v5.3H42.9v17.6h20.8V50.4z"/>
	<path d="M114.1,50.4h-7.2L80.9,10.2c-0.7-1-1.2-2.1-1.6-3.2h-0.2c0.2,1.1,0.3,3.4,0.3,6.9v36.4h-5.9V0h7.7l25.2,39.6
		c1.1,1.6,1.7,2.8,2,3.4h0.1c-0.2-1.5-0.4-3.9-0.4-7.4V0h5.9V50.4z"/>
</g>
<polygon class="st0" points="291.7,100.4 0,100.4 0,62.9 432.6,62.9 "/>
<g>
	<path class="st1" d="M14.4,73.6l0.7,0.2c-0.1,0.3-0.2,0.6-0.4,0.9c1,0.7,1.9,1.5,2.8,2.5L17,77.8c-0.8-0.9-1.7-1.7-2.6-2.4
		c-0.5,1.1-1.1,2.1-1.8,3h4v0.7h-1.9v2.3h2.4v0.7h-2.4v5.4c1-0.3,1.9-0.7,2.7-1l0.1,0.7c-1.8,0.9-3.9,1.6-6.3,2.3l-0.3-0.8
		c1-0.3,2-0.5,3-0.8v-5.6h-2.8v-0.7h2.8v-2.3h-1.8c-0.3,0.3-0.6,0.7-0.9,1l-0.6-0.5C12.3,77.8,13.6,75.8,14.4,73.6z M12.1,83.2
		c0.5,1.2,0.8,2.3,1,3.5l-0.8,0.2c-0.2-1.2-0.4-2.4-0.9-3.5L12.1,83.2z M16.5,82.9l0.7,0.4c-0.2,1.2-0.6,2.3-1.2,3.4l-0.7-0.5
		C15.9,85.1,16.3,84,16.5,82.9z M18.4,80h7.4v5.1h-2.3v2.7c0,0.4,0.1,0.7,0.2,0.8c0.1,0.1,0.7,0.2,1.9,0.2c0.4,0,0.7-0.1,0.8-0.2
		c0.1-0.2,0.2-0.9,0.2-2.2l0.8,0.5c-0.1,1.5-0.2,2.3-0.4,2.4c-0.1,0.2-0.5,0.3-1.3,0.3c-1.5,0-2.3-0.1-2.5-0.3
		c-0.3-0.1-0.4-0.5-0.4-1.3v-2.8h-1.4c-0.1,0.8-0.4,1.4-0.7,1.9c-0.4,0.8-1,1.3-1.7,1.8c-0.8,0.5-1.8,0.8-3,1l-0.2-0.7
		c1.1-0.2,2-0.5,2.7-0.9c0.6-0.4,1.1-0.8,1.5-1.5c0.3-0.5,0.5-1,0.6-1.6h-2.1V80z M19.8,76.1c0.6,0.6,1,1.3,1.5,2h1.5
		c0.5-0.6,0.9-1.3,1.3-2l0.8,0.3c-0.3,0.6-0.7,1.2-1.1,1.7h3.3v0.7H17.1v-0.7h3.3c-0.4-0.6-0.7-1.1-1.2-1.6L19.8,76.1z M21.4,73.4
		c0.5,0.5,1,1.1,1.4,1.8h3.9v0.7h-9.1v-0.7h4.2c-0.3-0.5-0.7-0.9-1.1-1.3L21.4,73.4z M19.1,82.3H25v-1.5h-5.8V82.3z M19.1,84.5H25
		v-1.6h-5.8V84.5z"/>
	<path class="st1" d="M36.3,86.1l0.1,0.7c-2,0.9-4.4,1.7-7,2.3l-0.3-0.8C31.7,87.7,34.1,86.9,36.3,86.1z M29.1,74.5h7v0.7h-7V74.5z
		 M30.1,77.2h5.3v4.6h-5.3V77.2z M31,82.7c0.6,1.3,0.9,2.5,1.1,3.8l-0.8,0.2c-0.2-1.3-0.5-2.6-1-3.8L31,82.7z M30.8,81h3.9v-3h-3.9
		V81z M34.2,82.4l0.8,0.3c-0.2,1.3-0.7,2.5-1.2,3.8L33,86.1C33.6,84.8,34,83.6,34.2,82.4z M39.2,87l0.5,0.6c-1.3,1-2.6,1.8-4,2.3
		l-0.3-0.7C36.8,88.7,38.1,88,39.2,87z M36.7,74.2h8.5v0.7H41l-0.5,2h3.4v9.8h-6.7V77h2.5l0.5-2h-3.5V74.2z M38,80h5.1v-2.3H38V80z
		 M38,83h5.1v-2.3H38V83z M38,86h5.1v-2.3H38V86z M41.9,87.1c1.4,0.6,2.5,1.3,3.5,2.2l-0.5,0.7c-0.9-0.8-2-1.5-3.3-2.2L41.9,87.1z"
		/>
</g>
</svg>
