<?xml version="1.0" encoding="utf-8"?>
<!-- Generator: Adobe Illustrator 21.1.0, SVG Export Plug-In . SVG Version: 6.00 Build 0)  -->
<svg version="1.1" id="圖層_1" xmlns="http://www.w3.org/2000/svg" xmlns:xlink="http://www.w3.org/1999/xlink" x="0px" y="0px"
	 viewBox="0 0 476 141.7" style="enable-background:new 0 0 476 141.7;" xml:space="preserve">
<style type="text/css">
	.st0{fill:#F3A8AB;}
	.st1{fill:#FFFFFF;}
	.st2{fill:#F08218;}
	.st3{fill:#7DC5E8;}
	.st4{fill:#B9D3EF;}
</style>
<g>
	<path class="st0" d="M68.3,139.3c-5.9,4.2-14.1,2.7-18.3-3.2L2.4,68.3C-1.8,62.4-0.3,54.2,5.6,50L73.4,2.4
		c5.9-4.2,14.1-2.7,18.3,3.2l47.6,67.8c4.2,5.9,2.7,14.1-3.2,18.3L68.3,139.3z"/>
	<g>
		<g>
			<g>
				<path class="st1" d="M108.3,107.3H34c-4.1,0-7.4-3.3-7.4-7.4V42.1c0-4.1,3.3-7.4,7.4-7.4h18.2v-2.9c0-4.1,3.3-7.4,7.4-7.4h19.7
					c4.1,0,7.4,3.3,7.4,7.4v2.9h21.6c4.1,0,7.4,3.3,7.4,7.4v57.8C115.7,104,112.4,107.3,108.3,107.3z M33.9,40.4
					c-0.9,0-1.7,0.7-1.7,1.7v57.8c0,0.9,0.7,1.7,1.7,1.7h74.3c0.9,0,1.7-0.8,1.7-1.7V42.1c0-0.9-0.7-1.7-1.7-1.7H80.9v-8.6
					c0-0.9-0.7-1.7-1.7-1.7H59.5c-0.9,0-1.7,0.7-1.7,1.7v8.6H33.9z"/>
			</g>
			<g>
				<g>
					<g>
						<path class="st2" d="M71.1,32.7c-19.7,0-35.6,15.9-35.6,35.6s15.9,35.6,35.6,35.6s35.6-15.9,35.6-35.6
							C106.8,48.7,90.8,32.7,71.1,32.7z"/>
					</g>
					<g>
						<path class="st1" d="M71.2,94c-12.1,0-25.6-11.5-25.6-25.6s11.5-25.6,25.6-25.6s25.6,11.5,25.6,25.6S85.3,94,71.2,94z"/>
					</g>
				</g>
			</g>
		</g>
		<g>
			<g>
				<circle class="st3" cx="71.1" cy="68.3" r="19.4"/>
				<path class="st4" d="M57.9,74.9c-0.9,0-1.8-0.6-2.1-1.5c-0.7-1.8-1-3.7-1-5.6c0-8.6,7-15.6,15.6-15.6c1.3,0,2.3,1,2.3,2.3
					s-1,2.3-2.3,2.3c-6.1,0-10.3,5-10.3,11.1c0,1.4-0.5,2.7,0,4c0.5,1.2-0.1,2.5-1.3,2.9C58.5,74.9,58.2,74.9,57.9,74.9z"/>
			</g>
		</g>
	</g>
</g>
<g>
	<path d="M153.1,29.7c2,0.2,4,0.3,5.8,0.3h2.6v-4.6c0-3-0.2-6.1-0.7-9.4c3.6,0.6,9.1,0.9,16.5,0.9c1,0,1.6,0.2,1.6,0.7
		c0,0.4-0.3,0.9-0.8,1.5c-0.8,0.6-1.2,1.4-1.2,2.6v8.4h2.3c2,0,3.9-0.1,5.9-0.3c-0.2,2.5-0.3,4.9-0.3,7.2c0,2.3,0.1,4.8,0.3,7.5
		c-1.8-0.4-3.7-0.6-5.9-0.6h-0.5c2.1,4.2,4.5,7.8,7.1,10.7v-29c0-3.1-0.2-5.7-0.7-7.9c3.1,0.4,5.8,0.6,8.2,0.6h24.4
		c2.7,0,5.5-0.2,8.2-0.6c-0.2,2.6-0.3,5.2-0.3,7.9v57.2c0,2.6,0.1,5.2,0.3,7.8c-2.7-0.2-5.5-0.3-8.2-0.3s-5.5,0.1-8.2,0.3
		c0.1-1.1,0.2-2.2,0.2-3.4h-8.4c0.1,1.2,0.1,2.3,0.2,3.4c-2.7-0.2-5.5-0.3-8.2-0.3s-5.5,0.1-8.2,0.3c0.4-2.5,0.7-5,0.7-7.5V61.9
		c-2,2.5-3.8,5.1-5.6,7.8c-1.1-1.4-2.2-2.8-3.3-4.3v18.7c0,1.6,0.1,3.6,0.3,5.9c-3.1-0.2-5.8-0.3-8.2-0.3c-2.7,0-5.5,0.1-8.2,0.3
		c0.4-2,0.7-3.9,0.7-5.9V68.6c-1.4,2.8-3,5.6-4.6,8.3c-1.9-5.9-3.9-11-6.2-15.2c3.6-5.4,6.5-11.4,8.7-18.1h-0.5
		c-1.8,0-3.7,0.2-5.8,0.6c0.2-2.8,0.2-5.3,0.2-7.5C153.3,34.4,153.2,32.1,153.1,29.7z M201.3,37.1h8.5v-4.4h-8.5V37.1z M201.3,54.9
		h8.5v-4h-8.5V54.9z M201.3,72.9h8.5v-4.3h-8.5V72.9z"/>
	<path d="M234.2,31.5c1.8,0.2,3.4,0.3,4.9,0.3v-8.1c0-2.3-0.1-4.8-0.3-7.5c2.8,0.5,7.2,0.7,13.1,0.7c0.9,0,1.3,0.2,1.3,0.5
		s-0.2,0.7-0.7,1.2c-0.7,0.5-1,1.2-1,2.2v11c1.5-0.1,3-0.2,4.5-0.3c-1-0.9-1.9-1.8-2.9-2.5c2.1-2.2,3.9-4.6,5.6-7.2
		c0.5,0.4,1.1,0.8,1.6,1.2c1.5-2,3-4.2,4.4-6.5c1.9,1.6,4.1,3,6.5,4.3c0.5,0.2,0.7,0.4,0.7,0.7c0,0.3-0.3,0.5-1,0.7
		c-1.9,2.1-3.6,4-5.3,5.8c0.4,0.5,0.9,1,1.4,1.6c1.1-1.4,2.2-2.8,3.3-4.3c1,0.8,2.1,1.5,3.3,2.3c-0.1-3.8-0.4-7.5-1-11.1
		c3.3,0.4,7.9,0.6,13.8,0.6c0.9,0,1.3,0.2,1.3,0.6c0,0.5-0.3,0.9-0.8,1.2s-0.8,0.8-0.8,1.6c0,1.4,0,2.7,0.1,4c1-1.2,2-2.6,2.9-4
		c0.7,0.5,1.3,1.1,2.1,1.7c2-2,3.8-4.1,5.5-6.4c1.8,1.4,3.7,2.7,5.9,4c0.4,0.2,0.7,0.4,0.7,0.6c0,0.3-0.3,0.5-1,0.6
		c-2.1,2.2-4.1,4.4-6,6.4c0.4,0.5,0.8,1,1.2,1.6c2.1-2.1,4.2-4.2,6.1-6.4c1.7,1.3,3.6,2.5,5.7,3.7c0.4,0.2,0.6,0.4,0.6,0.6
		c0,0.3-0.3,0.5-1,0.6c-3.9,3.9-7.8,7.6-11.5,11.1c1.5-0.1,3.1-0.2,4.8-0.3c-0.3-1.1-0.6-2.2-0.9-3.2c2.1-0.5,4.2-1,6.2-1.6
		c1.5,4.4,2.7,8.5,3.6,12.5c-2,0.5-4.4,1.3-7.2,2.3c-0.1-1-0.2-1.9-0.3-2.8c-0.9,0.2-1.8,0.3-2.6,0.3c1.2,1.1,2.3,2.3,3.3,3.7
		c-1.4,0.7-2.7,1.4-4.1,2.3h3.1c2.2,0,4.4-0.1,6.6-0.4c-0.2,1.8-0.3,3.6-0.3,5.3c0,1.7,0.1,3.5,0.3,5.4c-2-0.2-4.2-0.3-6.6-0.3h-3.4
		c1.5,1.6,3.3,3.4,5.5,5.3c0.3,0.3,0.5,0.6,0.5,0.9s-0.3,0.5-1,0.7c-2.1,2.6-4.5,5.1-7,7.3c0.5,0.5,1,0.7,1.4,0.7c1,0,2-0.3,2.9-0.9
		c1-0.9,2.4-2.9,4.4-5.9c1.4,4.5,3.1,8.8,5.3,12.8c-4.6,5.4-8.6,8.1-12.2,8.1c-3.7,0-7.5-2.4-11.3-7.2c-0.1-0.1-0.1-0.1-0.1-0.2
		c-4.2,2.6-8.8,4.7-13.6,6.5c-1.8-2.7-4-5.6-6.7-8.4c-1.5,3.2-3.6,6.4-6.5,9.7c-2.8-3.6-6-6.8-9.5-9.7c2.5-1.8,4.4-4.9,5.7-9.4
		c0.8-2.6,1.3-6,1.6-10c-0.7,0-1.3,0.1-2.1,0.2c0.1-0.5,0.1-1,0.2-1.4c-1.1,1.6-2.1,3.2-3.1,4.8c-0.9-1.2-1.8-2.6-2.6-4v24.1
		c0,1.3,0.2,3,0.7,5c-2.6-0.2-4.8-0.3-6.8-0.3c-2.2,0-4.5,0.1-6.7,0.3c0.2-1.6,0.3-3.3,0.3-5V71.5c-0.5,1-1.1,1.9-1.6,2.8
		c-1.6-5.1-3.5-9.4-5.6-13.1c2.7-4.7,4.9-9.9,6.4-15.8c-1.3,0.1-2.6,0.3-4.1,0.5c0.2-2.9,0.3-5.3,0.3-7.4
		C234.5,36.1,234.4,33.8,234.2,31.5z M255.6,49.7c0-0.1,0-0.1,0-0.2v-3.1c0-0.3,0-0.6-0.1-0.9c-0.7-0.1-1.5-0.2-2.3-0.2
		C253.9,46.8,254.7,48.3,255.6,49.7z M276.1,51.8c-0.2-1.2-0.4-2.4-0.6-3.7c-1.8,0.9-3.5,2-5.2,3.3c-0.1-1.1-0.1-2.2-0.2-3.4
		c-4.5,0.6-9,1.1-13.2,1.6c-0.4,0.4-0.7,0.6-0.9,0.6c0.4,0.7,0.9,1.4,1.3,2.1c0-0.3,0-0.5-0.1-0.9c2.4,0.3,4.5,0.4,6.6,0.4H276.1z
		 M256.6,40.6c1.4-1.2,2.7-2.5,4-3.9c-1.3-1.6-2.5-3.1-3.9-4.4c-0.2,2.1-0.2,4.1-0.2,6.1C256.6,39.2,256.6,39.9,256.6,40.6z
		 M275,44.2c-0.4-3.5-0.8-7.1-1-10.8c-3.3,3.1-6.6,6.1-9.7,8.9c1.4-0.2,2.9-0.5,4.6-0.8c0.1,0,0.2,0,0.4-0.1
		c-0.1-0.6-0.2-1.2-0.2-1.8c1.6-0.8,2.8-1.5,3.6-2.2C273.5,39.3,274.2,41.6,275,44.2z M268.8,79.3c5.1-1.1,9.8-2.8,14-5.1
		c-1.6-3.6-3.1-7.7-4.4-12.4h-6.6c-0.1,1-0.2,1.9-0.2,2.9c2.5,1.1,5.1,2.5,8,4c-1.6,2.5-3.1,5.3-4.3,8.3c-1.6-1-3.3-2-5-3
		c-0.3,1.4-0.7,2.7-1,3.8C269.1,78.4,269,78.9,268.8,79.3z M286.4,30.9c0.1,2.4,0.3,4.8,0.5,7.2c1.3-0.9,2.5-1.8,3.6-2.8
		C289.2,33.7,287.9,32.2,286.4,30.9z M288.2,47.4c0.1,0.3,0.1,0.7,0.2,1.1c0.2,1.1,0.4,2.3,0.6,3.3h5c-1-0.9-2.2-1.9-3.5-2.8
		c1.6-0.8,3-1.6,4.3-2.3C292.5,47,290.3,47.2,288.2,47.4z M292.9,66.7c1.6-1.5,3.1-3.1,4.5-4.9h-6.1
		C291.8,63.5,292.3,65.2,292.9,66.7z"/>
	<path d="M325.9,17.5c4,0.9,9,1.8,14.9,2.6c1,0.2,1.5,0.5,1.5,1.1c0,0.5-0.5,1-1.6,1.6c-0.5,1.9-1.1,3.7-1.6,5.3h8.5v-0.9
		c0-3.4-0.2-7-0.7-10.9c4.1,0.7,10.4,1,18.9,1c1.2,0,1.8,0.3,1.8,0.9c0,0.5-0.3,1.1-1,1.6c-0.9,0.7-1.3,1.7-1.3,3v5.3h20
		c2.6,0,5.3-0.1,7.9-0.3c-0.2,2.5-0.3,5-0.3,7.5c0,2.4,0.1,5,0.3,7.7c-2.6-0.4-5.3-0.5-7.9-0.5h-20v8.9H385c2.1,0,4.2-0.1,6.2-0.3
		c-0.2,2.6-0.3,5.1-0.3,7.5s0.1,5,0.3,7.7c-1.9-0.4-3.9-0.6-6.2-0.6h-19.7v9h20c3.1,0,6.1-0.1,9.2-0.3c-0.2,2.6-0.3,5.1-0.3,7.5
		s0.1,5,0.3,7.7c-2.7-0.4-5.7-0.6-9.2-0.6h-58.8c-2.7,0-5.8,0.2-9.2,0.6c0.2-2.9,0.3-5.5,0.3-7.7c0-2.5-0.1-5-0.3-7.5
		c3.2,0.2,6.3,0.3,9.2,0.3h21v-9h-20.7c-1.8,0-3.9,0.2-6.2,0.6c0.2-2.9,0.3-5.5,0.3-7.7c0-2.5-0.1-5.1-0.3-7.5
		c1.5,0.2,3,0.2,4.3,0.2c-2.8-3.7-5.7-6.8-8.9-9.5c2.4-2.9,4.3-6.4,5.9-10.5C323.7,27.1,325,22.5,325.9,17.5z M347.5,51.5v-8.9
		h-14.4c-1.5,3-3.3,5.9-5.3,8.9H347.5z"/>
	<path d="M408.4,56.1c3.5,2.2,8.1,4.7,13.8,7.5C419,75.8,416,84,413.3,88.3c0,1.6-0.2,2.4-0.7,2.4c-0.3,0-0.7-0.3-1.2-0.8
		c-4.3-2.8-8.8-5.3-13.5-7.5C403.1,74.3,406.6,65.5,408.4,56.1z M408.7,15.7c4.9,1.9,9.6,4.4,14,7.4c-0.3-1-0.5-1.9-0.8-2.8
		c16-0.3,31.4-1.5,46.2-3.7c1.8,3.8,3.7,7.4,5.7,10.6c1,1.5,1.5,2.6,1.5,3.4c0,0.6-0.3,0.9-0.9,0.9l-1.4-0.3
		c-4.8,0.8-10.1,1.5-16.1,2.1v5.1h10.8c2.8,0,5.7-0.2,8.5-0.7c-0.2,2.5-0.3,4.9-0.3,7.2c0,2.2,0.1,4.6,0.3,7.2
		c-2.5-0.2-5.4-0.3-8.5-0.3h-10.8v4h8.5c2.6,0,5.3-0.1,7.9-0.2c-0.2,2.4-0.3,4.7-0.3,7.1v19.9c0,2.5,0.1,5,0.3,7.5
		c-2.6-0.2-5.3-0.3-7.9-0.3c-2.6,0-5.3,0.1-7.9,0.3c0.1-0.7,0.2-1.5,0.2-2.2h-19.2c0.1,0.8,0.2,1.5,0.3,2.2
		c-2.6-0.2-5.3-0.3-7.9-0.3c-2.5,0-5,0.1-7.6,0.3c0.2-2.4,0.3-4.8,0.3-7.2V62.7c0-2.7-0.1-5.1-0.3-7.1c2.8,0.2,5.3,0.2,7.6,0.2h10.8
		v-4h-12c-2.5,0-5.3,0.1-8.5,0.3c0.1-1.8,0.2-3.5,0.2-4.9c-2.7,3.3-5.2,6.6-7.5,10.1c-4.9-3.8-9.9-7-15.1-9.3
		c3.5-3.7,6.7-7.8,9.5-12.4c4.6,2.1,8.9,4.9,13.1,8.2c0-2-0.1-4-0.2-6.1c3.1,0.5,5.9,0.7,8.5,0.7h12.2v-4
		c-5.3,0.4-10.8,0.7-16.8,0.9c-0.3-3-0.8-5.7-1.4-8.3c-2.8,3.5-5.4,7.1-7.8,10.7c-5.3-4-10.7-7.4-16.4-10
		C403,24.2,406,20.1,408.7,15.7z M438.3,74.2H458v-4.7h-19.7V74.2z"/>
</g>
<g>
	<path d="M153,96.9h9.2v21.5h14.5v7h-23.6V96.9H153z"/>
	<path d="M180.6,96.9h8.3v5.4h-8.3V96.9z M180.6,104.7h8.3v20.7h-8.3V104.7z"/>
	<path d="M203.4,104.7h4v5.8h-4v14.9h-8.3v-14.9H192v-5.8h3.1v-0.9c0-0.8,0.1-1.8,0.3-2.8c0.2-1,0.5-1.8,1.1-2.5
		c0.5-0.6,1.3-1.2,2.2-1.6c0.9-0.4,2.3-0.6,4.1-0.6c1.5,0,3.6,0.2,6.3,0.5l-0.9,4.8c-1-0.2-1.8-0.2-2.4-0.2c-0.7,0-1.3,0.1-1.6,0.4
		c-0.3,0.2-0.6,0.6-0.7,1.1C203.5,103.2,203.4,103.8,203.4,104.7z"/>
	<path d="M233.7,117h-16.6c0.1,1.3,0.5,2.2,1.1,2.8c0.8,0.9,1.8,1.3,3.1,1.3c0.8,0,1.6-0.2,2.3-0.6c0.4-0.2,0.9-0.7,1.4-1.3l8.2,0.7
		c-1.2,2.1-2.8,3.6-4.5,4.5c-1.8,0.9-4.3,1.4-7.6,1.4c-2.9,0-5.1-0.4-6.8-1.2c-1.6-0.8-3-2-4.1-3.7s-1.6-3.7-1.6-5.9
		c0-3.2,1.1-5.8,3.3-7.8c2.2-2,5.2-3,9-3c3.1,0,5.5,0.4,7.3,1.3s3.2,2.2,4.1,3.9c0.9,1.7,1.4,3.9,1.4,6.6L233.7,117L233.7,117z
		 M225.3,113.2c-0.2-1.5-0.6-2.6-1.3-3.3c-0.7-0.7-1.6-1-2.8-1c-1.3,0-2.4,0.5-3.2,1.5c-0.5,0.6-0.8,1.6-1,2.8H225.3z"/>
	<path d="M246,115.1c0-3.2,1.1-5.8,3.3-7.8c2.2-2,5.2-3.1,9-3.1c4.3,0,7.6,1.2,9.8,3.6c1.8,1.9,2.7,4.3,2.7,7.1
		c0,3.2-1.1,5.8-3.3,7.8c-2.2,2-5.3,3-9.2,3c-3.5,0-6.3-0.8-8.4-2.5C247.3,121.3,246,118.5,246,115.1z M254.3,115.1
		c0,1.8,0.4,3.2,1.2,4.1c0.8,0.9,1.8,1.3,2.9,1.3c1.2,0,2.2-0.4,2.9-1.3c0.8-0.9,1.2-2.3,1.2-4.2c0-1.8-0.4-3.1-1.2-4
		c-0.8-0.9-1.7-1.3-2.9-1.3c-1.2,0-2.2,0.4-3,1.3C254.7,111.9,254.3,113.3,254.3,115.1z"/>
	<path d="M284.1,104.7h4v5.8h-4v14.9h-8.3v-14.9h-3.1v-5.8h3.1v-0.9c0-0.8,0.1-1.8,0.3-2.8c0.2-1,0.5-1.8,1.1-2.5
		c0.5-0.6,1.3-1.2,2.2-1.6c0.9-0.4,2.3-0.6,4.1-0.6c1.5,0,3.6,0.2,6.3,0.5l-0.9,4.8c-1-0.2-1.8-0.2-2.4-0.2c-0.7,0-1.3,0.1-1.6,0.4
		c-0.3,0.2-0.6,0.6-0.7,1.1C284.1,103.2,284.1,103.8,284.1,104.7z"/>
	<path d="M323.5,113.7l8.1,2.3c-0.5,2.2-1.4,4-2.6,5.4c-1.2,1.5-2.6,2.5-4.4,3.3c-1.7,0.7-3.9,1.1-6.6,1.1c-3.2,0-5.9-0.4-8-1.4
		c-2.1-0.9-3.8-2.5-5.3-4.8s-2.2-5.2-2.2-8.7c0-4.7,1.3-8.3,3.9-10.9c2.6-2.5,6.3-3.8,11.2-3.8c3.8,0,6.7,0.7,8.9,2.2
		s3.8,3.7,4.8,6.7l-8.2,1.7c-0.3-0.9-0.6-1.5-0.9-1.9c-0.5-0.7-1.1-1.2-1.9-1.6c-0.7-0.4-1.6-0.5-2.5-0.5c-2.1,0-3.7,0.8-4.8,2.4
		c-0.8,1.2-1.3,3.1-1.3,5.6c0,3.2,0.5,5.3,1.5,6.5s2.4,1.8,4.2,1.8c1.8,0,3.1-0.5,4-1.4C322.4,116.9,323.1,115.5,323.5,113.7z"/>
	<path d="M343.1,111.4l-7.9-0.8c0.3-1.3,0.7-2.4,1.3-3.1c0.6-0.8,1.4-1.4,2.4-2c0.8-0.4,1.8-0.7,3.1-0.9c1.3-0.2,2.8-0.3,4.3-0.3
		c2.5,0,4.5,0.1,6,0.4s2.8,0.8,3.8,1.7c0.7,0.6,1.3,1.4,1.7,2.5s0.6,2.1,0.6,3.1v9.1c0,1,0.1,1.7,0.2,2.3c0.1,0.6,0.4,1.3,0.8,2.1
		h-7.8c-0.3-0.5-0.5-0.9-0.6-1.2c-0.1-0.3-0.2-0.7-0.3-1.3c-1.1,1-2.2,1.7-3.2,2.1c-1.5,0.6-3.2,0.9-5.1,0.9c-2.6,0-4.5-0.6-5.9-1.7
		c-1.3-1.1-2-2.5-2-4.2c0-1.6,0.5-2.9,1.4-3.9c1-1,2.7-1.8,5.3-2.3c3.1-0.6,5.1-1,6.1-1.3c0.9-0.2,1.9-0.6,2.9-0.9
		c0-1-0.2-1.7-0.6-2c-0.4-0.4-1.2-0.6-2.2-0.6c-1.4,0-2.4,0.2-3.1,0.6C343.8,109.9,343.4,110.5,343.1,111.4z M350.3,115.6
		c-1.1,0.4-2.3,0.7-3.6,1c-1.7,0.4-2.7,0.8-3.2,1.3c-0.5,0.4-0.7,0.9-0.7,1.5s0.2,1.1,0.7,1.5s1.1,0.6,2,0.6s1.8-0.2,2.6-0.6
		s1.4-0.9,1.7-1.6c0.3-0.6,0.5-1.4,0.5-2.4V115.6z"/>
	<path d="M363.4,104.7h7.7v3c1.1-1.3,2.2-2.2,3.4-2.7c1.1-0.5,2.5-0.8,4.1-0.8c1.7,0,3.1,0.3,4.1,0.9s1.8,1.5,2.5,2.6
		c1.3-1.3,2.5-2.3,3.6-2.8s2.4-0.7,4-0.7c2.3,0,4.1,0.7,5.4,2c1.3,1.3,2,3.4,2,6.2v13h-8.3v-11.8c0-0.9-0.2-1.6-0.6-2.1
		c-0.6-0.7-1.2-1.1-2.1-1.1c-1,0-1.8,0.3-2.4,1c-0.6,0.7-0.9,1.8-0.9,3.2v10.7h-8.3v-11.4c0-0.9-0.1-1.5-0.2-1.8
		c-0.2-0.5-0.5-0.9-0.9-1.3s-0.9-0.5-1.5-0.5c-1,0-1.7,0.3-2.4,1c-0.6,0.7-0.9,1.8-0.9,3.4v10.5h-8.3L363.4,104.7L363.4,104.7z"/>
	<path d="M429.1,117h-16.6c0.1,1.3,0.5,2.2,1.1,2.8c0.8,0.9,1.8,1.3,3.1,1.3c0.8,0,1.6-0.2,2.3-0.6c0.4-0.2,0.9-0.7,1.4-1.3l8.2,0.7
		c-1.3,2.1-2.8,3.6-4.5,4.5c-1.8,0.9-4.3,1.4-7.6,1.4c-2.9,0-5.1-0.4-6.8-1.2c-1.6-0.8-3-2-4.1-3.7s-1.6-3.7-1.6-5.9
		c0-3.2,1.1-5.8,3.2-7.8s5.2-3,9-3c3.1,0,5.5,0.4,7.3,1.3s3.2,2.2,4.1,3.9s1.4,3.9,1.4,6.6L429.1,117L429.1,117z M420.7,113.2
		c-0.2-1.5-0.6-2.6-1.3-3.3c-0.7-0.7-1.6-1-2.8-1c-1.3,0-2.4,0.5-3.2,1.5c-0.5,0.6-0.8,1.6-1,2.8H420.7z"/>
	<path d="M433,104.7h7.8v3.4c0.7-1.5,1.5-2.5,2.3-3s1.8-0.8,2.9-0.8c1.2,0,2.6,0.4,4,1.1l-2.6,5.6c-1-0.4-1.8-0.6-2.3-0.6
		c-1.1,0-1.9,0.4-2.5,1.3c-0.9,1.2-1.3,3.5-1.3,6.8v6.9H433L433,104.7L433,104.7z"/>
	<path d="M459.7,111.4l-7.9-0.8c0.3-1.3,0.7-2.4,1.3-3.1c0.6-0.8,1.4-1.4,2.4-2c0.8-0.4,1.8-0.7,3.1-0.9c1.3-0.2,2.8-0.3,4.3-0.3
		c2.5,0,4.5,0.1,6,0.4s2.8,0.8,3.8,1.7c0.7,0.6,1.3,1.4,1.7,2.5s0.6,2.1,0.6,3.1v9.1c0,1,0.1,1.7,0.2,2.3c0.1,0.6,0.4,1.3,0.8,2.1
		h-7.8c-0.3-0.5-0.5-0.9-0.6-1.2c-0.1-0.3-0.2-0.7-0.3-1.3c-1.1,1-2.2,1.7-3.2,2.1c-1.5,0.6-3.2,0.9-5.1,0.9c-2.6,0-4.5-0.6-5.9-1.7
		c-1.3-1.1-2-2.5-2-4.2c0-1.6,0.5-2.9,1.4-3.9c1-1,2.7-1.8,5.3-2.3c3.1-0.6,5.1-1,6.1-1.3c0.9-0.2,1.9-0.6,2.9-0.9
		c0-1-0.2-1.7-0.6-2c-0.4-0.4-1.2-0.6-2.2-0.6c-1.4,0-2.4,0.2-3.1,0.6C460.4,109.9,460,110.5,459.7,111.4z M466.9,115.6
		c-1.1,0.4-2.3,0.7-3.6,1c-1.7,0.4-2.7,0.8-3.2,1.3c-0.5,0.4-0.7,0.9-0.7,1.5s0.2,1.1,0.7,1.5s1.1,0.6,2,0.6s1.8-0.2,2.6-0.6
		s1.4-0.9,1.7-1.6c0.3-0.6,0.5-1.4,0.5-2.4V115.6z"/>
</g>
</svg>
