<?xml version="1.0" encoding="utf-8"?>
<!-- Generator: Adobe Illustrator 21.1.0, SVG Export Plug-In . SVG Version: 6.00 Build 0)  -->
<svg version="1.1" id="圖層_1" xmlns="http://www.w3.org/2000/svg" xmlns:xlink="http://www.w3.org/1999/xlink" x="0px" y="0px"
	 viewBox="0 0 70.5 63" style="enable-background:new 0 0 70.5 63;" xml:space="preserve">
<style type="text/css">
	.st0{fill:#F5A916;}
</style>
<g id="購物車">
	<path class="st0" d="M67,41.5H17.7v-2.4l45.2-6c2.4-0.4,4.1-2.3,4.2-4.7V13.5c0-2.5-2-4.5-4.5-4.5H17.7V5.5c0-3-2.5-5.5-5.5-5.5
		H3.5C1.6,0,0,1.6,0,3.5S1.6,7,3.5,7h7.2v36c0,3,2.5,5.5,5.5,5.5H67c1.9,0,3.5-1.6,3.5-3.5C70.4,43.1,68.9,41.5,67,41.5z M37.4,31.4
		l-8.6,1.1V13.9h8.6V31.4z M41.4,13.9H50v15.9l-8.6,1.1V13.9z M62.1,28.2L54,29.3V14h8.1V28.2z M24.8,13.9v19.2L17.7,34V13.9H24.8z"
		/>
	<circle class="st0" cx="26.6" cy="56.1" r="6.9"/>
	<circle class="st0" cx="60" cy="56.1" r="6.9"/>
</g>
</svg>
