<?xml version="1.0" encoding="utf-8"?>
<!-- Generator: Adobe Illustrator 21.1.0, SVG Export Plug-In . SVG Version: 6.00 Build 0)  -->
<svg version="1.1" id="圖層_1" xmlns="http://www.w3.org/2000/svg" xmlns:xlink="http://www.w3.org/1999/xlink" x="0px" y="0px"
	 viewBox="0 0 664.6 74.6" style="enable-background:new 0 0 664.6 74.6;" xml:space="preserve">
<style type="text/css">
	.st0{fill:#275DA3;}
	.st1{fill:#FFFFFF;}
</style>
<polygon class="st0" points="520.9,74.6 0,74.6 0,33.3 611.2,33.3 "/>
<polygon class="st0" points="574.2,50 573.7,47.1 664.1,5.8 664.6,8.7 "/>
<g>
	<path class="st1" d="M10.4,49.5v-4c3.6,2.3,7.3,3.4,11,3.4c3.9,0,6.9-0.8,9-2.4c2-1.6,3.1-3.9,3.1-6.8c0-2.6-0.7-4.6-2.1-6.2
		C30,32,27,29.9,22.4,27.2c-5.1-3-8.3-5.5-9.7-7.5c-1.4-2-2-4.3-2-6.9c0-3.6,1.4-6.6,4.1-9.1C17.6,1.2,21.3,0,25.9,0
		c3,0,6,0.5,9,1.5v3.7c-3-1.3-6.1-2-9.5-2c-3.4,0-6.1,0.9-8.1,2.6c-2,1.7-3,3.9-3,6.6c0,2.6,0.7,4.6,2.1,6.2
		c1.4,1.5,4.3,3.6,8.9,6.2c4.7,2.7,7.8,5,9.4,7.1c1.6,2.1,2.3,4.5,2.3,7.2c0,3.9-1.3,7-4,9.5c-2.7,2.4-6.5,3.7-11.4,3.7
		c-1.7,0-3.7-0.3-6-0.8C13.3,50.8,11.6,50.2,10.4,49.5z"/>
	<path class="st1" d="M68.5,52.1c-7.1,0-12.8-2.4-17-7.1c-4.2-4.7-6.3-10.9-6.3-18.5c0-8,2.2-14.5,6.5-19.3C56,2.4,61.9,0,69.4,0
		C76.2,0,81.7,2.3,86,7c4.2,4.7,6.3,10.8,6.3,18.3c0,8.3-2.2,14.9-6.5,19.7C81.5,49.7,75.7,52.1,68.5,52.1z M68.9,3.2
		c-5.9,0-10.7,2.1-14.5,6.4c-3.8,4.2-5.7,9.8-5.7,16.7c0,6.9,1.8,12.5,5.4,16.6s8.4,6.2,14.3,6.2c6.2,0,11.2-2,14.8-6.1
		c3.6-4.1,5.4-9.7,5.4-17c0-7.1-1.8-12.7-5.3-16.7C79.8,5.2,75,3.2,68.9,3.2z"/>
	<path class="st1" d="M138.2,51.3l-30-40.7c-0.6-0.8-1.1-1.6-1.6-2.5l-0.5-0.7H106c0,0.6,0.1,1.3,0.1,2.2v41.7h-3.5V0.8h2.7
		l29.8,40.4c0.7,0.9,1.4,2,2.1,3.2h0.2c-0.1-1.6-0.2-3-0.2-4.2V0.8h3.5v50.4H138.2z"/>
	<path class="st1" d="M168.2,32.1v19.2h-3.4V32.2L149.3,0.8h3.9l11.7,24.3c0.4,0.8,0.9,2.1,1.6,3.7h0.1c0.3-0.9,0.9-2.1,1.7-3.7
		l12.3-24.4h3.8L168.2,32.1z"/>
	<path class="st1" d="M212.2,51.3V0.8h3.5v50.4H212.2z"/>
	<path class="st1" d="M228.6,51.3V0.8h3.5v47.3h20.2v3.2H228.6z"/>
	<path class="st1" d="M291.6,49.6c-4.1,1.7-8.3,2.5-12.8,2.5c-6.9,0-12.5-2.3-16.9-6.9c-4.3-4.6-6.5-10.7-6.5-18.1
		c0-8.2,2.4-14.7,7.1-19.7c4.7-4.9,10.7-7.4,18-7.4c3.9,0,7.6,0.6,11.1,1.9v3.7c-3.5-1.6-7.3-2.4-11.2-2.4c-6.3,0-11.5,2.1-15.4,6.4
		s-5.9,10-5.9,17.1c0,6.9,1.9,12.3,5.7,16.3s8.6,6,14.4,6c4.6,0,8.8-0.9,12.5-2.7V49.6z"/>
	<path class="st1" d="M302.8,51.3V0.8h23.6V4h-20.1v20.2h18.6v3.2h-18.6v20.7h21.2v3.2H302.8z"/>
	<path class="st1" d="M390.9,51.7c-0.8,0-1.5-0.3-2.1-0.8s-1.1-1.3-1.6-2.4c-0.5-1.1-1-2.4-1.4-4.1s-0.9-3.6-1.4-5.9h-0.1
		c-1,2.4-2.1,4.5-3.1,6.2c-1.1,1.7-2.2,3.1-3.4,4.2s-2.5,1.9-4,2.4s-3,0.8-4.7,0.8c-2,0-3.9-0.4-5.6-1.2s-3.1-2-4.3-3.5
		c-1.2-1.5-2.1-3.4-2.8-5.5c-0.7-2.2-1-4.6-1-7.2c0-3,0.4-5.7,1.1-8.2c0.7-2.5,1.7-4.6,3.1-6.4s3-3.2,4.9-4.2c2-1,4.2-1.5,6.7-1.5
		c1.5,0,2.8,0.2,3.9,0.6c1.2,0.4,2.2,0.9,3.1,1.6c0.9,0.7,1.7,1.5,2.4,2.5s1.3,2,1.8,3c0.5,1.1,1,2.2,1.4,3.4s0.8,2.3,1.1,3.5h0.1
		c0.2-0.8,0.6-1.8,1-3c0.4-1.2,0.9-2.4,1.3-3.7s0.9-2.5,1.3-3.8c0.4-1.2,0.8-2.3,1.1-3.3h3.7c-0.4,1.1-0.9,2.5-1.5,4.1
		c-0.6,1.6-1.2,3.2-1.9,4.9c-0.7,1.7-1.3,3.3-2,5c-0.6,1.6-1.2,3.1-1.7,4.4c0.5,2.2,1,4.1,1.4,5.7c0.4,1.6,0.8,3,1.1,4.1
		s0.7,2,0.9,2.7s0.6,1.2,0.8,1.6s0.5,0.6,0.8,0.8c0.2,0.1,0.5,0.2,0.8,0.2c0.4,0,0.7,0,1-0.1c0.3-0.1,0.6-0.1,0.9-0.3v2.8
		c-0.5,0.2-1,0.3-1.4,0.4S391.5,51.7,390.9,51.7z M383.1,33.6c-0.6-2.2-1.3-4.3-1.9-6.2s-1.4-3.7-2.3-5.2c-0.9-1.5-1.9-2.7-3.2-3.6
		s-2.8-1.3-4.7-1.3c-1.9,0-3.7,0.4-5.2,1.2c-1.5,0.8-2.8,2-3.9,3.5c-1.1,1.5-1.9,3.3-2.5,5.4c-0.6,2.1-0.8,4.4-0.8,6.9
		c0,2.3,0.3,4.4,0.8,6.2s1.2,3.4,2.2,4.6s2.1,2.2,3.5,2.9c1.4,0.7,2.9,1,4.6,1c1.4,0,2.8-0.3,4-0.9c1.2-0.6,2.3-1.5,3.4-2.7
		s2-2.6,2.8-4.2c0.9-1.6,1.7-3.5,2.4-5.5L383.1,33.6z"/>
	<path class="st1" d="M401.3,50.8v-3.6c2.7,1.3,5.2,1.9,7.4,1.9c5.3,0,9.4-2.1,12.2-6.4s4.2-10.5,4.2-18.8h-0.1
		c-2.3,5.4-6.4,8.1-12.4,8.1c-2.1,0-4-0.4-5.7-1.2s-3.2-1.8-4.4-3.2s-2.2-3-2.8-4.9c-0.7-1.9-1-4-1-6.2c0-2.5,0.4-4.7,1.1-6.8
		s1.8-3.8,3.2-5.2c1.4-1.5,3-2.6,4.8-3.4s3.9-1.2,6.1-1.2c2.2,0,4.2,0.5,6,1.4s3.3,2.4,4.6,4.3c1.3,1.9,2.2,4.3,2.9,7.1s1,6.2,1,10
		c0,4.7-0.4,8.8-1.3,12.5c-0.9,3.6-2.1,6.7-3.8,9.2s-3.7,4.4-6.2,5.7s-5.3,2-8.5,2C406.2,52.1,403.7,51.7,401.3,50.8z M413.4,3
		c-1.6,0-3.2,0.3-4.6,1c-1.4,0.7-2.6,1.6-3.6,2.7s-1.8,2.5-2.4,4.1c-0.6,1.6-0.8,3.3-0.8,5.2c0,2,0.3,3.9,0.8,5.5
		c0.6,1.6,1.3,3,2.3,4.1c1,1.1,2.2,2,3.6,2.6c1.4,0.6,2.9,0.9,4.6,0.9c1.5,0,3-0.3,4.4-0.9c1.4-0.6,2.6-1.5,3.6-2.5
		c1-1,1.8-2.3,2.4-3.7c0.6-1.4,0.9-2.9,0.9-4.4c0-2.1-0.3-4.1-0.8-5.9c-0.6-1.8-1.3-3.4-2.3-4.7s-2.2-2.3-3.6-3
		C416.6,3.3,415.1,3,413.4,3z"/>
</g>
</svg>
