<?xml version="1.0" encoding="utf-8"?>
<!-- Generator: Adobe Illustrator 21.1.0, SVG Export Plug-In . SVG Version: 6.00 Build 0)  -->
<svg version="1.1" id="圖層_1" xmlns="http://www.w3.org/2000/svg" xmlns:xlink="http://www.w3.org/1999/xlink" x="0px" y="0px"
	 viewBox="0 0 543.5 149" style="enable-background:new 0 0 543.5 149;" xml:space="preserve">
<style type="text/css">
	.st0{fill:#F08218;}
	.st1{opacity:0.5;}
	.st2{fill:#FFFFFF;}
</style>
<polygon class="st0" points="0,86.4 484.5,86.4 458.3,128.2 0,128.2 "/>
<g>
	<g class="st1">
		<path d="M9.4,55V4.6h3.5v47.3h20.2V55H9.4z"/>
		<path d="M42.4,55V4.6h3.5V55H42.4z"/>
		<path d="M62.3,7.8v20.6h18.6v3.2H62.3V55h-3.5V4.6h23.6v3.2H62.3z"/>
		<path d="M92.3,55V4.6h23.6v3.2H95.7V28h18.6v3.2H95.7v20.7H117V55H92.3z"/>
		<path d="M168.7,55.9c-7.1,0-12.8-2.4-17-7.1c-4.2-4.7-6.3-10.9-6.3-18.5c0-8,2.2-14.5,6.5-19.3c4.3-4.8,10.3-7.3,17.8-7.3
			c6.8,0,12.3,2.3,16.5,7c4.2,4.7,6.3,10.8,6.3,18.3c0,8.3-2.2,14.9-6.5,19.7S175.9,55.9,168.7,55.9z M169.1,6.9
			c-5.9,0-10.7,2.1-14.5,6.4c-3.8,4.2-5.7,9.8-5.7,16.7c0,6.9,1.8,12.5,5.4,16.6s8.4,6.2,14.3,6.2c6.2,0,11.2-2,14.8-6.1
			c3.6-4.1,5.4-9.7,5.4-17c0-7.1-1.8-12.7-5.3-16.7C180,8.9,175.2,6.9,169.1,6.9z"/>
		<path d="M206.3,7.8v20.6h18.6v3.2h-18.6V55h-3.5V4.6h23.6v3.2H206.3z"/>
		<path d="M289.5,53.4c-4.1,1.7-8.3,2.5-12.8,2.5c-6.9,0-12.5-2.3-16.9-6.9c-4.3-4.6-6.5-10.7-6.5-18.1c0-8.2,2.4-14.7,7.1-19.7
			c4.7-4.9,10.7-7.4,18-7.4c3.9,0,7.6,0.6,11.1,1.9v3.7c-3.5-1.6-7.3-2.4-11.2-2.4c-6.3,0-11.5,2.1-15.4,6.4s-5.9,10-5.9,17.1
			c0,6.9,1.9,12.3,5.7,16.3s8.6,6,14.4,6c4.6,0,8.8-0.9,12.5-2.7V53.4z"/>
		<path d="M333.5,55l-5.8-15.7h-21.9L300.1,55h-3.8l19-50.4h3.3L337.4,55H333.5z M318.1,12.8c-0.3-0.7-0.5-1.4-0.6-2.1
			c-0.2-0.6-0.3-1.2-0.5-1.8h-0.1c-0.4,1.5-0.8,2.8-1.2,3.8l-8.5,23.4h19.4L318.1,12.8z"/>
		<path d="M389.7,55V19.2c0-0.9,0.1-3.3,0.4-7.4h-0.1c-0.7,1.9-1.3,3.4-1.8,4.4L370.2,55H369l-18-38.6c-0.6-1.2-1.1-2.8-1.7-4.7
			h-0.2c0.2,2.3,0.2,4.5,0.2,6.7V55H346V4.6h3.2L368,45.2c0.1,0.2,0.2,0.6,0.4,0.9c0.1,0.4,0.3,0.8,0.5,1.2c0.2,0.6,0.5,1.3,0.7,2
			h0.2l0.4-1.1c0-0.1,0.4-1.2,1.2-3.3l18.5-40.3h3.1V55H389.7z"/>
		<path d="M405.9,55V4.6h23.6v3.2h-20.1V28h18.6v3.2h-18.6v20.7h21.2V55H405.9z"/>
		<path d="M467.8,55L461,40.2c-1.4-3-2.8-5.1-4.1-6.1c-1.4-1-3.1-1.6-5.2-1.6h-6.3V55h-3.5V4.6h14c4.5,0,8,1.2,10.5,3.6
			c2.5,2.4,3.8,5.6,3.8,9.5c0,3.6-1,6.7-3.1,9.1c-2.1,2.4-5,4-8.8,4.7v0.1c2,0.8,3.9,3.2,5.8,7.3l7.5,16.1H467.8z M445.4,7.8v21.6
			h8.7c3.8,0,6.9-1,9.2-3c2.3-2,3.4-4.8,3.4-8.3c0-3.2-1-5.7-3.1-7.5c-2-1.8-5-2.7-8.8-2.7H445.4z"/>
		<path d="M511.4,46.3l-2.4-7h-21.9L481.4,55h-3.8l19-50.4h3.3l14,37.7L511.4,46.3z M499.3,12.8c-0.3-0.7-0.5-1.4-0.6-2.1
			c-0.2-0.6-0.3-1.2-0.5-1.8H498c-0.4,1.5-0.8,2.8-1.2,3.8l-8.5,23.4h19.4L499.3,12.8z"/>
	</g>
	<g>
		<g>
			<path class="st2" d="M9.1,54.7V4.3h3.5v47.3h20.2v3.2H9.1z"/>
			<path class="st2" d="M42.1,54.7V4.3h3.5v50.4H42.1z"/>
			<path class="st2" d="M62,7.5v20.6h18.6v3.2H62v23.5h-3.5V4.3h23.6v3.2H62z"/>
			<path class="st2" d="M92,54.7V4.3h23.6v3.2H95.4v20.2h18.6v3.2H95.4v20.7h21.2v3.2H92z"/>
			<path class="st2" d="M168.4,55.6c-7.1,0-12.8-2.4-17-7.1c-4.2-4.7-6.3-10.9-6.3-18.5c0-8,2.2-14.5,6.5-19.3
				c4.3-4.8,10.3-7.3,17.8-7.3c6.8,0,12.3,2.3,16.5,7c4.2,4.7,6.3,10.8,6.3,18.3c0,8.3-2.2,14.9-6.5,19.7S175.7,55.6,168.4,55.6z
				 M168.8,6.6c-5.9,0-10.7,2.1-14.5,6.4c-3.8,4.2-5.7,9.8-5.7,16.7c0,6.9,1.8,12.5,5.4,16.6s8.4,6.2,14.3,6.2
				c6.2,0,11.2-2,14.8-6.1c3.6-4.1,5.4-9.7,5.4-17c0-7.1-1.8-12.7-5.3-16.7C179.7,8.6,174.9,6.6,168.8,6.6z"/>
			<path class="st2" d="M206,7.5v20.6h18.6v3.2H206v23.5h-3.5V4.3h23.6v3.2H206z"/>
			<path class="st2" d="M289.2,53.1c-4.1,1.7-8.3,2.5-12.8,2.5c-6.9,0-12.5-2.3-16.9-6.9c-4.3-4.6-6.5-10.7-6.5-18.1
				c0-8.2,2.4-14.7,7.1-19.7c4.7-4.9,10.7-7.4,18-7.4c3.9,0,7.6,0.6,11.1,1.9V9c-3.5-1.6-7.3-2.4-11.2-2.4c-6.3,0-11.5,2.1-15.4,6.4
				s-5.9,10-5.9,17.1c0,6.9,1.9,12.3,5.7,16.3s8.6,6,14.4,6c4.6,0,8.8-0.9,12.5-2.7V53.1z"/>
			<path class="st2" d="M333.2,54.7L327.5,39h-21.9l-5.8,15.7H296l19-50.4h3.3l18.8,50.4H333.2z M317.8,12.5
				c-0.3-0.7-0.5-1.4-0.6-2.1c-0.2-0.6-0.3-1.2-0.5-1.8h-0.1c-0.4,1.5-0.8,2.8-1.2,3.8l-8.5,23.4h19.4L317.8,12.5z"/>
			<path class="st2" d="M389.4,54.7V18.9c0-0.9,0.1-3.3,0.4-7.4h-0.1c-0.7,1.9-1.3,3.4-1.8,4.4l-17.9,38.8h-1.1l-18-38.6
				c-0.6-1.2-1.1-2.8-1.7-4.7h-0.2c0.2,2.3,0.2,4.5,0.2,6.7v36.6h-3.5V4.3h3.2l18.8,40.6c0.1,0.2,0.2,0.6,0.4,0.9
				c0.1,0.4,0.3,0.8,0.5,1.2c0.2,0.6,0.5,1.3,0.7,2h0.2l0.4-1.1c0-0.1,0.4-1.2,1.2-3.3l18.5-40.3h3.1v50.4H389.4z"/>
			<path class="st2" d="M405.7,54.7V4.3h23.6v3.2h-20.1v20.2h18.6v3.2h-18.6v20.7h21.2v3.2H405.7z"/>
			<path class="st2" d="M467.5,54.7L460.8,40c-1.4-3-2.8-5.1-4.1-6.1c-1.4-1-3.1-1.6-5.2-1.6h-6.3v22.5h-3.5V4.3h14
				c4.5,0,8,1.2,10.5,3.6c2.5,2.4,3.8,5.6,3.8,9.5c0,3.6-1,6.7-3.1,9.1c-2.1,2.4-5,4-8.8,4.7v0.1c2,0.8,3.9,3.2,5.8,7.3l7.5,16.1
				H467.5z M445.1,7.5v21.6h8.7c3.8,0,6.9-1,9.2-3c2.3-2,3.4-4.8,3.4-8.3c0-3.2-1-5.7-3.1-7.5c-2-1.8-5-2.7-8.8-2.7H445.1z"/>
			<path class="st2" d="M511.1,46.1l-2.4-7h-21.9l-5.8,15.7h-3.8l19-50.4h3.3l14,37.7L511.1,46.1z M499,12.5
				c-0.3-0.7-0.5-1.4-0.6-2.1c-0.2-0.6-0.3-1.2-0.5-1.8h-0.1c-0.4,1.5-0.8,2.8-1.2,3.8l-8.5,23.4h19.4L499,12.5z"/>
		</g>
	</g>
</g>
<g>
	<g class="st1">
		<rect x="406.4" y="73.3" transform="matrix(0.5473 -0.8369 0.8369 0.5473 161.2148 447.5988)" width="176" height="3"/>
	</g>
	<g>
		<rect x="406.1" y="73" transform="matrix(0.5473 -0.8369 0.8369 0.5473 161.3237 447.2333)" class="st2" width="176" height="3"/>
	</g>
</g>
<g>
	<path class="st2" d="M18.1,98.6h9.7v16.4c0,1-0.5,1.5-1.6,1.5c-0.8,0-1.6-0.1-2.7-0.3l-0.1-1.1c1,0.3,1.9,0.4,2.7,0.4
		c0.4,0,0.6-0.3,0.6-0.9v-4.9h-6v6.2h-1v-6.2H14c-0.1,0.9-0.3,1.9-0.5,2.8c-0.4,1.5-0.9,3.1-1.7,4.6l-0.9-0.5
		c0.9-1.8,1.5-3.5,1.8-4.8c0.3-1.7,0.5-3.4,0.5-5.1v-8.1H18.1z M14,108.8h5.7v-4.4h-5.7v2.3C14.1,107.4,14.1,108.1,14,108.8z
		 M14.1,103.5h5.7v-3.9h-5.7V103.5z M20.8,99.5v3.9h6v-3.9H20.8z M20.8,104.4v4.4h6v-4.4H20.8z"/>
	<path class="st2" d="M31.9,102.2h3.9v-4.4h0.9v4.4h3.2v0.9h-3.2v2.9l0.6-0.5c1.2,1.3,2.2,2.7,3,4.2l-0.8,0.6
		c-0.7-1.4-1.6-2.8-2.7-4.1V117h-0.9v-11.4c-0.3,1.3-0.8,2.5-1.3,3.6c-0.6,1.3-1.3,2.5-2.2,3.8l-0.9-0.8c0.9-1.2,1.8-2.7,2.5-4.4
		c0.7-1.5,1.1-3,1.4-4.6h-3.5V102.2z M49.5,98.8v18h-0.9v-1.9h-7.1v1.9h-0.9v-18H49.5z M41.6,103.7h7.1v-4.1h-7.1V103.7z
		 M41.6,108.8h7.1v-4.2h-7.1V108.8z M41.6,114h7.1v-4.3h-7.1V114z"/>
	<path class="st2" d="M52.9,101.8h2.7v-4.2h0.9v4.2h2v0.8h-2V117h-0.9v-11c-0.2,0.9-0.4,1.7-0.7,2.4c-0.4,1.2-0.9,2.4-1.6,3.7
		l-0.8-0.7c0.7-1.2,1.3-2.6,1.9-4.3c0.5-1.4,0.8-2.9,1-4.4h-2.5V101.8z M57.4,104.5c0.6,1,1.1,2,1.5,3.2l-0.8,0.6
		c-0.3-1.1-0.8-2.2-1.4-3.2L57.4,104.5z M57.9,108.9h2.9c0.1-0.5,0.1-0.9,0.2-1.4h0.9c0,0.5-0.1,0.9-0.2,1.4h3.5
		c0-0.1,0-0.2-0.1-0.2c-0.7-2.6-1.1-6.3-1.1-11.1H65c0,4.7,0.4,8.3,1,10.6c0.1,0.2,0.1,0.4,0.2,0.7h2.8c-0.4-0.5-0.8-0.9-1.3-1.4
		l0.7-0.5c0.6,0.5,1.2,1.2,1.7,1.8h1.8v0.7h-5.4c0.3,1,0.6,1.9,1,2.7c0.7-0.7,1.3-1.4,1.8-2.2l0.8,0.4c-0.6,1-1.4,1.8-2.2,2.6
		c0.1,0.2,0.3,0.5,0.4,0.7c0.9,1.3,1.6,1.9,2.1,1.9c0.2,0,0.3-0.1,0.4-0.3c0.2-0.4,0.3-1.1,0.4-2.2l0.9,0.4
		c-0.1,1.3-0.3,2.1-0.7,2.6c-0.3,0.3-0.6,0.5-1,0.5c-0.7,0-1.6-0.7-2.6-2.2c-0.2-0.3-0.3-0.5-0.5-0.8c-0.3,0.2-0.5,0.4-0.8,0.6
		c-1.2,0.8-2.9,1.6-4.9,2.3l-0.4-0.8c2-0.6,3.5-1.4,4.7-2.2c0.4-0.2,0.7-0.5,1-0.8c-0.5-1-0.9-2.1-1.3-3.3h-3.8
		c-0.1,0.4-0.2,0.9-0.3,1.3c1.2,0.8,2.2,1.5,3,2.2l-0.5,0.7c-0.9-0.8-1.8-1.5-2.7-2.1c-0.4,1.2-0.8,2.1-1.3,3
		c-0.5,0.9-1.2,1.6-1.9,2.1l-0.5-0.7c0.7-0.5,1.2-1.1,1.7-1.9c0.5-0.8,0.9-1.8,1.3-3c0.1-0.5,0.2-1,0.3-1.5h-2.8V108.9z M61.5,98
		l0.8,0.3c-0.2,0.8-0.6,1.5-1,2.3c-0.3,0.6-0.7,1.2-1,1.6c0.7-0.1,1.3-0.1,2-0.3c0.3-0.6,0.6-1.2,0.8-1.8l0.8,0.3
		c-0.4,1-1,2.1-1.7,3.2c-0.6,0.9-1.2,1.7-1.8,2.4c0.9-0.1,1.7-0.2,2.4-0.4c-0.2-0.4-0.5-0.8-0.7-1.2l0.7-0.3c0.7,0.9,1.2,2,1.6,3.1
		l-0.9,0.3c-0.1-0.4-0.2-0.8-0.4-1.1c-1.1,0.3-2.5,0.5-4.2,0.6l-0.2-0.9c0.2,0,0.4,0,0.6,0c0.7-0.9,1.4-1.8,2-2.7
		c0.1-0.2,0.3-0.4,0.4-0.6c-1,0.2-1.9,0.3-2.9,0.3l-0.3-0.8c0.2,0,0.4,0,0.7-0.1c0.4-0.6,0.8-1.3,1.2-2C60.8,99.6,61.2,98.8,61.5,98
		z M68.4,97.9l0.8,0.3c-0.3,0.8-0.6,1.5-1.1,2.3c-0.3,0.6-0.7,1.2-1.1,1.7c0.7-0.1,1.4-0.1,2.1-0.2c0.3-0.6,0.6-1.3,0.9-1.9l0.8,0.3
		c-0.4,1-0.9,2.1-1.6,3.2c-0.5,0.9-1.1,1.7-1.7,2.4c1-0.1,1.8-0.2,2.6-0.4c-0.2-0.4-0.5-0.7-0.7-1.1l0.6-0.4c0.7,1,1.3,2,1.8,3.2
		l-0.6,0.5c-0.2-0.5-0.4-1-0.7-1.5c-1.2,0.4-2.7,0.5-4.5,0.6l-0.2-0.9h0.7c0.7-0.9,1.3-1.8,1.9-2.7c0.1-0.2,0.2-0.3,0.3-0.5
		c-1,0.2-2,0.3-3.1,0.3l-0.3-0.8c0.2,0,0.4,0,0.6,0c0.5-0.6,0.9-1.3,1.3-2C67.7,99.6,68.1,98.7,68.4,97.9z"/>
	<path class="st2" d="M73.7,101h8.6v0.8h-8.6V101z M74.6,103.7h6.9v0.8h-6.9V103.7z M74.6,106.6h6.8v0.8h-6.8V106.6z M80.9,109.6
		v6.8H80V115h-4v1.6h-0.9v-7.1H80.9z M76,114.2h4v-3.8h-4V114.2z M76.9,97.6c0.8,0.8,1.5,1.7,2.1,2.6l-0.8,0.6
		c-0.5-0.9-1.1-1.8-2-2.6L76.9,97.6z M82.3,99.1h8.9v7.8h-7v7.2c0,0.7,0.2,1.1,0.5,1.1c0.1,0.2,1.5,0.2,4.2,0.2
		c1.4,0,2.2-0.2,2.4-0.5c0.2-0.2,0.3-1.3,0.4-3.5l1,0.6c-0.1,2.4-0.3,3.7-0.7,3.9c-0.2,0.3-1.2,0.4-3.1,0.4c-3.3,0-5-0.1-5.1-0.4
		c-0.4-0.2-0.7-0.8-0.7-1.9V106h7v-6h-7.9V99.1z"/>
	<path class="st2" d="M99.1,97.7l0.8,0.4c-0.2,0.5-0.5,1-0.8,1.5c1.2,0.8,2.4,1.8,3.4,2.9l-0.6,0.7c-1-1.1-2.1-2.1-3.2-2.9
		c-0.6,1.1-1.3,2.1-2,3.2h4.7v0.8h-2.2v2.7h2.9v0.8h-2.9v6c1.1-0.4,2.1-0.7,3.1-1.1l0.1,0.8c-2.1,0.9-4.5,1.8-7.3,2.4l-0.3-0.9
		c1.2-0.3,2.4-0.6,3.5-0.9v-6.3h-3V107h3v-2.7h-2.1v-0.2c-0.3,0.5-0.7,0.9-1,1.3l-0.7-0.7C96.4,102.5,97.9,100.1,99.1,97.7z
		 M96.3,109c0.5,1.3,0.9,2.5,1.1,3.8l-0.9,0.2c-0.2-1.3-0.5-2.6-0.9-3.8L96.3,109z M101.2,108.6l0.7,0.4c-0.2,1.4-0.6,2.7-1.2,3.9
		l-0.7-0.5C100.6,111.2,100.9,109.9,101.2,108.6z M105.5,97.5l0.8,0.3l-0.6,1.7h5.5l-1.5,5.6h4v0.8h-5.5v9.2c0,1.1-0.5,1.6-1.5,1.6
		c-0.7,0-1.3-0.1-1.9-0.2l-0.1-1c0.7,0.2,1.3,0.3,2,0.3c0.3,0,0.5-0.3,0.5-1V106h-5.8v-0.8h7.4l0.4-1.7h-5.7L105.5,97.5z M106,111
		l0.7,0.8c-1.2,1.1-2.5,2.2-4,3.1l-0.6-0.8C103.6,113.2,104.9,112.2,106,111z M103.7,107.3c1.1,0.8,2,1.7,2.8,2.6l-0.8,0.6
		c-0.7-0.9-1.6-1.8-2.7-2.6L103.7,107.3z M109.5,102.6l0.5-2.2h-4.5l-0.7,2.2H109.5z M109.7,111c1.4,1,2.7,2.1,3.9,3.4l-0.7,0.8
		c-1.2-1.4-2.5-2.5-3.9-3.4L109.7,111z M111.8,106.8l0.8,0.4c-0.7,1.2-1.6,2.2-2.7,3.2l-0.7-0.7
		C110.3,108.9,111.1,107.9,111.8,106.8z"/>
	<path class="st2" d="M116,104.9h3.2v-7.3h0.9v7.3h2.8v0.9h-2.8V117h-0.9v-8.7c-0.3,0.8-0.6,1.5-0.9,2.2c-0.5,1-1.1,2-1.9,2.9
		l-0.7-0.7c0.8-0.9,1.6-2.1,2.3-3.4c0.5-1.1,0.9-2.3,1.2-3.4h-3V104.9z M117,99.6c0.7,1.3,1.2,2.6,1.7,4.1l-0.9,0.4
		c-0.4-1.5-0.9-2.8-1.5-4L117,99.6z M120.9,107.1c0.8,1,1.5,2.1,2.3,3.5l-0.7,0.7c-0.6-1.2-1.4-2.4-2.3-3.6L120.9,107.1z
		 M122.1,99.6l0.9,0.3c-0.3,1.4-0.9,2.9-1.6,4.4l-0.9-0.5C121.3,102.3,121.8,100.9,122.1,99.6z M123.6,99.3h4.6v-1.6h0.9v1.6h5v0.8
		h-5v1.7h4v0.8h-4v1.7h5.7v0.8h-11.6v-0.8h5v-1.7h-3.7v-0.8h3.7v-1.7h-4.6V99.3z M131.8,116.7c-0.5,0-1.2-0.1-1.9-0.2l-0.1-0.9
		c0.8,0.2,1.4,0.3,1.9,0.3c0.4,0,0.6-0.3,0.6-0.8v-2h-7.2v3.9h-0.9v-10.2h9v8.4C133.3,116.2,132.8,116.7,131.8,116.7z M125.2,109.5
		h7.2v-1.9h-7.2V109.5z M125.2,112.3h7.2v-2.1h-7.2V112.3z"/>
	<path class="st2" d="M137,107.2h5.5v-1.7h0.9v1.7h5v0.8h-5v8.9h-0.9v-8c-0.5,1-1.2,2.1-2,3.1c-1.2,1.5-2.4,2.6-3.5,3.4l-0.4-0.8
		c1-0.7,2-1.7,3.1-3c0.9-1.2,1.6-2.3,2.2-3.5H137V107.2z M148.5,97.9l0.5,0.9c-3.2,0.7-7,1.1-11.6,1.2l-0.3-0.9
		C140.9,99.1,144.7,98.7,148.5,97.9z M138.7,101c0.8,1.2,1.4,2.6,1.9,4.1l-0.8,0.6c-0.5-1.4-1.1-2.8-1.8-4.1L138.7,101z
		 M142.4,100.4c0.6,1.2,1.1,2.5,1.6,4l-0.8,0.6c-0.4-1.4-0.8-2.8-1.5-4L142.4,100.4z M144.6,109.2c1,1,2,2.2,3,3.6l-0.7,0.7
		c-0.8-1.3-1.8-2.5-3-3.7L144.6,109.2z M147.1,100.1l0.9,0.3c-0.4,1.7-1,3.4-1.9,5.2l-0.9-0.5C146.1,103.3,146.7,101.6,147.1,100.1z
		 M155.1,109.1l0.8,0.6c-0.9,1.2-2.2,2.4-3.7,3.7c-1.8,1.3-3.5,2.4-5.1,3.3l-0.7-0.9c1.6-0.8,3.3-1.9,5-3.2
		C152.9,111.4,154.2,110.2,155.1,109.1z M154.6,103l0.8,0.6c-0.7,1.1-1.7,2.2-2.9,3.3c-1.4,1.2-2.7,2.2-3.9,3l-0.7-0.9
		c1.2-0.7,2.5-1.7,3.9-2.9C153,105.1,153.9,104,154.6,103z M154.2,97.8l0.7,0.6c-0.6,1-1.5,2-2.6,3c-1.2,1.1-2.4,1.9-3.5,2.6
		l-0.6-0.8c1.1-0.7,2.2-1.5,3.4-2.6C152.7,99.6,153.6,98.7,154.2,97.8z"/>
	<path class="st2" d="M162.5,98.3l0.9,0.5c-0.3,1.2-0.7,2.3-1.2,3.3h4.5v-4.5h1v4.5h7.3v0.9h-7.3v5.1h6.5v0.9h-6.5v5.7h8.9v0.9
		h-18.8v-0.9h8.9V109h-5.9v-0.9h5.9V103h-4.9c-0.9,1.8-1.9,3.5-3.2,5l-0.9-0.6C160.1,104.6,161.6,101.6,162.5,98.3z"/>
	<path class="st2" d="M179.2,103.4c1.5,0.8,2.8,1.8,4,2.9l-0.6,0.7c-1.3-1.2-2.6-2.1-4-3L179.2,103.4z M183.1,108.8l0.8,0.5
		c-0.9,2.4-2.3,4.8-4.1,7.3l-0.9-0.6C180.7,113.8,182.1,111.4,183.1,108.8z M180.4,98.6c1.4,0.8,2.6,1.7,3.8,2.7l-0.6,0.7
		c-1.2-1.1-2.4-2-3.8-2.8L180.4,98.6z M195.6,98.4l0.5,0.9c-1.6,0.5-3.3,0.9-5.2,1.1v3.8h6.8v0.8H191v3.9h4.7v7.9h-0.9v-1.5h-8.2
		v1.5h-0.9V109h4.4v-3.9h-6.6v-0.8h6.6v-3.7c-1.6,0.2-3.2,0.3-5,0.4l-0.3-0.9C188.4,100.1,192,99.5,195.6,98.4z M186.5,114.6h8.2
		v-4.8h-8.2V114.6z"/>
</g>
</svg>
